<svg width="35" height="30" viewBox="0 0 35 30" fill="none" xmlns="http://www.w3.org/2000/svg">
<path fill-rule="evenodd" clip-rule="evenodd" d="M27.4167 4.55H26.0056L24.5117 1.638C23.9916 0.626275 23.0258 0.0014625 21.9794 0H13.0206C11.9742 0.0014625 11.0084 0.626275 10.4883 1.638L8.99442 4.55H8.75V2.6C8.75 2.24104 8.48881 1.95 8.16667 1.95H3.5C3.17785 1.95 2.91667 2.24104 2.91667 2.6V4.55C1.30667 4.55211 0.00189583 6.006 0 7.8V26C0.00189583 27.794 1.30667 29.2479 2.91667 29.25H32.0833C33.6933 29.2479 34.9981 27.794 35 26V7.8C34.9981 6.006 33.6933 4.55211 32.0833 4.55H30.9167H28.5833H27.4167ZM7.58333 3.25H4.08333V4.55H7.58333V3.25ZM32.0833 27.95C33.0498 27.95 33.8333 27.077 33.8333 26V7.8C33.8333 6.72303 33.0498 5.85 32.0833 5.85H25.6667C25.4578 5.85049 25.2647 5.7265 25.1603 5.525L23.4961 2.2828C23.1843 1.677 22.6062 1.30236 21.9794 1.3H13.0206C12.3923 1.30171 11.8127 1.67757 11.501 2.2854L9.83967 5.525C9.73525 5.7265 9.54217 5.85049 9.33333 5.85H2.91667C1.95016 5.85 1.16667 6.72303 1.16667 7.8V26C1.16667 27.077 1.95016 27.95 2.91667 27.95H32.0833Z" fill="white"/>
<path d="M25.3409 18.241C25.3404 18.2407 25.3399 18.2406 25.3394 18.2403C25.0385 18.1122 24.7014 18.2801 24.5863 18.6154C23.0865 22.9727 18.7006 25.1502 14.7903 23.4789C12.1599 22.3547 10.3056 19.6984 9.975 16.5809L11.3989 18.1675C11.6228 18.4257 11.992 18.4329 12.2237 18.1835C12.4555 17.934 12.4619 17.5226 12.238 17.2644C12.2334 17.2589 12.2286 17.2536 12.2237 17.2484L9.74866 14.4905C9.52087 14.2367 9.15162 14.2367 8.92383 14.4905L6.44583 17.2484C6.22198 17.5066 6.22839 17.9181 6.46012 18.1675C6.68616 18.4109 7.04462 18.4109 7.27066 18.1675L8.78733 16.4775C9.22359 21.8404 13.4787 25.7936 18.2915 25.3075C21.6167 24.9717 24.4804 22.5567 25.6737 19.082C25.7902 18.7474 25.6412 18.3708 25.3409 18.241Z" fill="white"/>
<path d="M27.7436 13.0166C27.7387 13.0218 27.734 13.0272 27.7293 13.0325L26.2127 14.7225C25.7773 9.35961 21.5229 5.40542 16.71 5.89048C13.3709 6.22702 10.4979 8.66013 9.31291 12.155C9.19901 12.4908 9.35104 12.866 9.65241 12.9929C9.95377 13.1198 10.2904 12.9504 10.4043 12.6146C11.8875 8.25022 16.265 6.05192 20.1817 7.70455C22.8293 8.82174 24.698 11.4893 25.0279 14.6224L23.604 13.0325C23.3802 12.7743 23.0109 12.7672 22.7792 13.0166C22.5474 13.2659 22.541 13.6775 22.7649 13.9357C22.7695 13.9411 22.7743 13.9464 22.7792 13.9516L25.2542 16.7096C25.482 16.9633 25.8513 16.9633 26.0791 16.7096L28.5541 13.9516C28.7859 13.7023 28.7923 13.2907 28.5684 13.0325C28.3447 12.7743 27.9753 12.7672 27.7436 13.0166Z" fill="white"/>
</svg>
