<svg xmlns="http://www.w3.org/2000/svg" viewBox="0 0 24 24" style="enable-background:new 0 0 1792 1792" xml:space="preserve" width="24" height="24">
    <path d="M19.749 3.64c0.333 0 0.611 0.276 0.611 0.611v15.426c0 0.333 -0.276 0.611 -0.611 0.611H4.322c-0.333 0 -0.611 -0.276 -0.611 -0.611V4.251c0 -0.333 0.276 -0.611 0.611 -0.611h15.427m0 -2.302H4.322c-1.607 0 -2.913 1.307 -2.913 2.913v15.426c0 1.607 1.307 2.913 2.913 2.913h15.426c1.607 0 2.913 -1.307 2.913 -2.913V4.251c0.001 -1.607 -1.306 -2.913 -2.912 -2.913z"/>
    <path d="M18.643 7.199c-0.599 -0.599 -1.566 -0.599 -2.159 0L9.793 13.902 7.282 11.397c-0.599 -0.599 -1.566 -0.599 -2.159 0 -0.599 0.599 -0.599 1.566 0 2.159l3.443 3.438c0.04 0.058 0.086 0.11 0.138 0.155 0.3 0.3 0.696 0.449 1.094 0.449 0.391 0 0.789 -0.143 1.089 -0.449 0.052 -0.052 0.098 -0.103 0.138 -0.161l7.623 -7.63c0.593 -0.593 0.593 -1.562 -0.005 -2.16z"/>
</svg>