<svg width="24" height="24" viewBox="0 0 24 24" fill="none" xmlns="http://www.w3.org/2000/svg"><path d="M12 21.75c5.385 0 9.75-4.365 9.75-9.75S17.385 2.25 12 2.25 2.25 6.615 2.25 12s4.365 9.75 9.75 9.75Z" stroke="#3A52EE" stroke-width="1.5" stroke-miterlimit="10" stroke-linecap="round" stroke-linejoin="round"/><path d="M12 12a2.249 2.249 0 0 0 2.248-2.25A2.249 2.249 0 1 0 12 12Zm2.997 2.25c1.656 0 2.977 1.495 1.809 2.67-1.103 1.108-2.863 1.83-4.806 1.83s-3.703-.722-4.806-1.83c-1.168-1.175.153-2.67 1.809-2.67h5.994Z" stroke="#3A52EE" stroke-width="1.5" stroke-miterlimit="10" stroke-linecap="round" stroke-linejoin="round"/></svg>