<svg width="24" height="24" viewBox="0 0 24 24" xmlns="http://www.w3.org/2000/svg" fill="currentColor" class="bi bi-currency-dollar"><path d="M6 16.172c.222 2.501 2.269 4.275 5.386 4.505V22.5h1.564v-1.824c3.405-.268 5.517-2.157 5.517-4.95 0-2.385-1.42-3.765-4.434-4.542l-1.083-.28V5.2c1.683.165 2.819 1.071 3.105 2.424h2.205c-.249-2.4-2.31-4.122-5.31-4.313V1.5h-1.564v1.85c-2.909.345-4.905 2.208-4.905 4.734 0 2.181 1.449 3.724 3.992 4.375l.915.243v6.046c-1.724-.255-2.91-1.2-3.196-2.577H6zm5.087-5.754c-1.564-.395-2.4-1.237-2.4-2.424 0-1.416 1.056-2.462 2.7-2.742v5.242l-.3-.075zm2.386 2.808c1.93.485 2.778 1.288 2.778 2.653 0 1.645-1.239 2.742-3.3 2.909v-5.693l.522.129z"/></svg>