<svg xmlns="http://www.w3.org/2000/svg" viewBox="0 0 24 24" style="enable-background:new 0 0 508 508" xml:space="preserve" width="24" height="24">
    <path d="M5.131 6.777c-1.427 0 -2.584 1.157 -2.584 2.584 0 1.422 1.157 2.584 2.584 2.584 1.427 0 2.584 -1.157 2.584 -2.584 0 -1.427 -1.157 -2.584 -2.584 -2.584zm0 3.836c-0.69 0 -1.252 -0.562 -1.252 -1.252 -0.005 -0.69 0.557 -1.252 1.252 -1.252 0.69 0 1.252 0.562 1.252 1.252s-0.562 1.252 -1.252 1.252zM12 5.365c-1.479 0 -2.683 1.205 -2.683 2.683s1.205 2.683 2.683 2.683 2.683 -1.205 2.683 -2.683 -1.205 -2.683 -2.683 -2.683zm0 3.983c-0.718 0 -1.299 -0.586 -1.299 -1.299s0.581 -1.299 1.299 -1.299 1.299 0.586 1.299 1.299c0 0.718 -0.586 1.299 -1.299 1.299zm6.874 -2.57c-1.427 0 -2.584 1.157 -2.584 2.584 0 1.422 1.157 2.584 2.584 2.584s2.584 -1.157 2.584 -2.584c0 -1.427 -1.157 -2.584 -2.584 -2.584zm0 3.836c-0.69 0 -1.252 -0.562 -1.252 -1.252s0.562 -1.252 1.252 -1.252 1.252 0.562 1.252 1.252 -0.562 1.252 -1.252 1.252zm0 2.23c-0.836 0 -1.663 0.208 -2.4 0.6 -0.572 -0.723 -1.384 -1.247 -2.334 -1.436 -1.403 -0.279 -2.868 -0.279 -4.271 0 -0.945 0.189 -1.762 0.713 -2.334 1.436 -0.737 -0.392 -1.564 -0.6 -2.4 -0.6 -2.835 0 -5.135 2.301 -5.135 5.126 0 0.369 0.298 0.666 0.666 0.666h22.668c0.369 0 0.666 -0.298 0.666 -0.666 0 -2.825 -2.301 -5.126 -5.126 -5.126zm-12.222 3.132v1.332H1.394c0.317 -1.776 1.871 -3.128 3.737 -3.128 0.614 0 1.214 0.156 1.753 0.435 -0.151 0.425 -0.231 0.883 -0.231 1.361zm9.364 1.328H7.984v-1.332c0 -1.294 0.902 -2.409 2.14 -2.66 1.233 -0.246 2.523 -0.246 3.756 0 1.238 0.25 2.135 1.37 2.135 2.665v1.328zm1.337 0v-1.332c0 -0.472 -0.08 -0.931 -0.231 -1.361 0.539 -0.283 1.143 -0.435 1.757 -0.435 1.866 0 3.42 1.351 3.737 3.128H17.353z"/>
</svg>