<svg width="22" height="19" viewBox="0 0 22 19" fill="none"
    xmlns="http://www.w3.org/2000/svg">
    <path d="M0 8.88354C0 9.34058 0.351562 9.73608 0.914062 9.73608C1.18652 9.73608 1.43262 9.58667 1.65234 9.41089L2.6543 8.56714V16.741C2.6543 18.0417 3.43652 18.8152 4.78125 18.8152H16.6729C18.0088 18.8152 18.7998 18.0417 18.7998 16.741V8.52319L19.8545 9.41089C20.0654 9.58667 20.3115 9.73608 20.584 9.73608C21.1025 9.73608 21.498 9.41089 21.498 8.90112C21.498 8.60229 21.3838 8.36499 21.1553 8.17163L18.7998 6.1853V2.44116C18.7998 2.04565 18.5449 1.79956 18.1494 1.79956H16.9365C16.5498 1.79956 16.2861 2.04565 16.2861 2.44116V4.07593L12.0059 0.481201C11.2412 -0.1604 10.2744 -0.1604 9.50977 0.481201L0.351562 8.17163C0.114258 8.36499 0 8.62866 0 8.88354ZM13.2803 11.3093C13.2803 10.8962 13.0166 10.6326 12.6035 10.6326H8.91211C8.49902 10.6326 8.22656 10.8962 8.22656 11.3093V17.0662H5.24707C4.70215 17.0662 4.40332 16.7585 4.40332 16.2048V7.09937L10.3711 2.0896C10.6172 1.87866 10.8984 1.87866 11.1445 2.0896L17.042 7.04663V16.2048C17.042 16.7585 16.7432 17.0662 16.1982 17.0662H13.2803V11.3093Z"/>
</svg>
