<svg xmlns="http://www.w3.org/2000/svg" width="24" height="24" viewBox="0 0 24 24" style="enable-background:new 0 0 485.241 485.241" xml:space="preserve">
    <path d="m19.416 12.063 -0.072 0.155c-0.132 -0.218 -0.317 -0.549 -0.524 -0.92 -0.584 -1.047 -1.385 -2.481 -2.214 -3.6l-0.017 -0.022c-0.824 -1.02 -1.74 -1.516 -2.799 -1.516 -0.346 0 -0.708 0.055 -1.077 0.164 -1.254 0.37 -1.448 1.162 -1.473 1.485 -0.049 0.622 0.43 1.792 1.711 2.398l0.001 0.928c0.636 -0.171 1.417 -0.513 1.479 -1.023 0.052 -0.422 -0.165 -0.828 -0.55 -1.011 -1.142 -0.542 -1.351 -1.018 -1.333 -1.191 0.08 -0.77 1.697 -1.044 3.012 0.579 0.776 1.05 1.549 2.435 2.114 3.447 0.183 0.328 0.341 0.611 0.473 0.835l-3.754 8.1c-0.37 -0.1 -0.693 -0.145 -1.02 -0.145 -0.204 0 -0.39 0.017 -0.572 0.033 -0.2 0.018 -0.406 0.037 -0.671 0.037 -0.176 0 -0.359 -0.008 -0.561 -0.025 -1.196 -0.098 -3.114 -1.031 -3.992 -1.527 -0.433 -0.319 -0.473 -0.525 -0.394 -0.948h-1.325c-0.073 0.625 0.035 1.352 0.98 2.032l0.028 0.02 0.03 0.017c0.281 0.16 2.797 1.567 4.565 1.712 0.237 0.02 0.456 0.029 0.668 0.029 0.324 0 0.571 -0.022 0.79 -0.042 0.165 -0.015 0.308 -0.028 0.452 -0.028 0.238 0 0.54 0.03 1.137 0.249l0.128 0.051 -0.067 0.145 3.263 1.517 4.845 -10.42 -3.263 -1.517z" fill="currentColor"/>
    <path d="M12.341 15.78V10.818l-0.352 -0.248c-0.378 -0.224 -0.695 -0.498 -0.949 -0.796v4.572H2.622V3.307h8.418v3.073c0.267 -0.224 0.627 -0.427 1.113 -0.57a4.935 4.935 0 0 1 0.187 -0.051V1.874C12.341 0.839 11.502 0 10.467 0H3.196C2.161 0 1.322 0.839 1.322 1.874v13.906c0 1.035 0.839 1.874 1.874 1.874h7.271c1.035 0 1.874 -0.839 1.874 -1.874zM9.805 1.729a0.402 0.402 0 0 1 0.402 0.402 0.402 0.402 0 1 1 -0.402 -0.402zm-4.713 0.075h3.479v0.656h-3.479v-0.656zm1.739 14.407c-0.387 0 -0.7 -0.313 -0.7 -0.7 0 -0.387 0.313 -0.7 0.7 -0.7 0.387 0 0.7 0.313 0.7 0.7 0 0.387 -0.313 0.7 -0.7 0.7z" fill="currentColor"/>
</svg>